<svg width="77" height="48" viewBox="0 0 77 48" fill="none" xmlns="http://www.w3.org/2000/svg">
<g clip-path="url(#clip0_313_2402)">
<path d="M52.9966 39.0994C48.4494 39.1785 43.6401 38.1659 38.8287 37.1106C34.1724 36.084 29.6252 34.64 24.9909 33.5343C20.8432 32.5434 16.6587 31.9761 12.3814 32.3067C10.1507 32.4789 8.00069 32.9369 6.0108 33.9943C5.64031 34.1876 5.55318 34.3606 5.66156 34.7696C5.95271 35.82 5.45825 36.8522 4.492 37.3606C4.02039 37.6085 3.47853 37.6937 2.95237 37.6027C2.42622 37.5116 1.94589 37.2494 1.58758 36.8578C1.23904 36.4729 1.03102 35.9836 0.996738 35.4681C0.962453 34.9526 1.10388 34.4407 1.39844 34.014C2.03033 33.0735 3.09859 32.7289 4.1881 33.1456C4.5423 33.2815 4.81291 33.2527 5.12531 33.0518C7.58769 31.4411 10.3674 30.8473 13.2605 30.5819C19.0935 30.0434 24.7365 31.0721 30.3527 32.4775C35.1415 33.6778 39.9536 34.8039 44.8677 35.3872C51.2603 36.1484 57.6529 36.4999 64.0235 35.1715C66.922 34.5656 69.7346 33.6108 72.3981 32.3284C72.894 32.091 72.979 31.876 72.6815 31.418C72.2027 30.6736 71.8518 29.8561 71.643 28.9985C71.4099 28.0077 71.7443 27.1169 72.5639 26.5476C73.363 25.9943 74.5176 26.0021 75.3528 26.5693C76.1087 27.0861 76.4792 28.0196 76.2468 28.9677C75.8324 30.5973 74.8591 31.9047 73.6095 32.9817C70.6895 35.4873 67.1886 36.8739 63.5198 37.8837C60.2024 38.7906 56.8318 39.1071 52.9966 39.0994Z" fill="#E93821"/>
<path d="M73.0747 28.7163C73.1689 28.1848 73.4374 27.8325 73.9899 27.8613C74.5424 27.89 74.818 28.2639 74.7811 28.7807C74.7521 29.2548 74.4475 29.5924 73.9311 29.5777C73.3793 29.5637 73.147 29.1904 73.0747 28.7163Z" fill="#F8F7F7"/>
<path d="M3.24516 34.3173C3.79701 34.3173 4.21142 34.4679 4.5309 34.8419C4.61024 34.935 4.66904 35.0638 4.54507 35.1507C4.49407 35.1864 4.34885 35.1647 4.29076 35.1143C3.76088 34.6402 3.18708 34.5904 2.56227 34.8916C2.51785 34.9033 2.47112 34.9036 2.42658 34.8923C2.38204 34.881 2.34119 34.8586 2.30796 34.8271C2.24279 34.7123 2.30087 34.5974 2.41705 34.533C2.66792 34.3875 2.95436 34.3129 3.24516 34.3173Z" fill="#F3E6E4"/>
<path d="M4.01523 35.4012C4.00035 35.5952 3.87355 35.6239 3.768 35.5742C3.57177 35.4874 3.39042 35.3872 3.15807 35.423C2.99797 35.4517 2.73657 35.5882 2.73657 35.2829C2.73657 35.0602 2.99089 35.0315 3.18711 35.0385C3.52077 35.0427 3.85513 35.0637 4.01523 35.4012Z" fill="#F1DEDC"/>
<path d="M3.54202 36.0909C3.49881 36.231 3.42584 36.3206 3.28771 36.3206C3.07519 36.3206 2.98309 36.1911 2.99726 35.9978C3.01214 35.8465 3.12832 35.8248 3.25866 35.8465C3.32565 35.8533 3.38886 35.8804 3.4396 35.9242C3.49034 35.968 3.52612 36.0262 3.54202 36.0909Z" fill="#F5ECEB"/>
<path d="M10.7634 8.88997L1.76318 25.5419H6.78996L8.41006 22.3396H12.7249L13.2038 25.5419H14.119L16.5382 13.2632L15.8043 8.75342H10.8505L10.7634 8.88997Z" fill="#E93821"/>
<path d="M17.9331 8.75342H23.2723L25.1609 15.9628L29.8823 8.75342H35.2647L34.5457 12.7457L27.7614 25.5419H27.1075L28.8218 16.9467L25.7417 21.7506L22.2118 21.7863L21.2165 16.911L19.4073 25.5419H14.6787L17.9331 8.75342Z" fill="#E93821"/>
<path d="M37.2843 8.75342H39.5073L38.6862 13.1554L43.1824 13.2989L41.0473 25.5419H39.8197L39.3691 22.5335L34.9523 22.397L33.3761 25.5419H28.2402L37.2843 8.75342Z" fill="#E93821"/>
<path d="M40.1611 8.75342H54.5798L53.7226 12.7457H48.9941L48.5875 15.3529H46.3284L44.2358 25.5419H41.5992L44.0977 12.8178L39.3401 12.6813L40.1611 8.75342Z" fill="#E93821"/>
<path d="M48.6888 20.7746L47.7303 25.5498H44.8535L46.7711 15.8965H50.1636L51.5656 19.4868L52.3866 15.8965H55.2627V16.1332C55.2627 16.1332 50.2288 20.4371 53.4131 25.1114L53.4499 25.5498L50.5001 25.7221L48.6888 20.7746Z" fill="#E93821"/>
<path d="M59.8537 15.7478C59.8537 15.7478 54.4699 14.57 53.0836 20.3431C52.984 20.7678 52.9352 21.2026 52.9384 21.6386V22.2563C52.9343 22.9363 53.1313 23.6027 53.5051 24.1736C54.3403 25.4299 56.2728 26.9383 60.3404 24.633L59.8537 15.7478Z" fill="#E93821"/>
<path d="M60.5076 15.647H63.791V20.329L65.8467 15.8984H68.8971V20.329L70.8806 15.8984H73.9317L69.58 25.7142H66.5658L66.2243 21.4495L64.2699 25.5419H61.1246L60.5076 15.647Z" fill="#E93821"/>
<path d="M11.8889 15.353L10.2617 18.5911H12.3834L11.8889 15.353Z" fill="white"/>
<path d="M38.4177 15.353L36.7905 18.5911H38.9186L38.4177 15.353Z" fill="white"/>
<path d="M59.3302 21.1602C59.7934 19.7955 59.5183 18.4733 58.7156 18.207C57.913 17.9408 56.8868 18.8313 56.4235 20.196C55.9603 21.5607 56.2354 22.8828 57.038 23.1491C57.8407 23.4153 58.8669 22.5249 59.3302 21.1602Z" fill="white"/>
</g>
<defs>
<clipPath id="clip0_313_2402">
<rect width="76.8" height="48" fill="white"/>
</clipPath>
</defs>
</svg>
